<?xml version="1.0" encoding="UTF-8"?>
<svg id="Layer_1" data-name="Layer 1" xmlns="http://www.w3.org/2000/svg" xmlns:xlink="http://www.w3.org/1999/xlink" viewBox="0 0 2599.049695018240527 850.393700787401031">
  <defs>
    <clipPath id="clippath">
      <path d="M608.409978789009983,540.263991220332173c.09914799804028-.112508366564725,.16665301797002-.236267569784104,.264394661431652-.349479113632697,39.326596354378125-45.873880110993923,63.138288959899-105.439325255269068,63.138288959899-170.600655281405125,0-144.881242685376492-117.448890208450393-262.330132893823247-262.330132893830523-262.330132893823247S147.151693445401179,224.43261413991786,147.151693445401179,369.313856825294351c0,65.160626848848551,23.810989428218818,124.724665638536862,63.136179428020114,170.598545749531695,.098444820749137,.113914721143374,.166653017968201,.237673924358205,.266504193299625,.351588645506126l2.383067839240539,2.706529393100936c.959133824930177,1.084299382739118,1.892250090109883,2.190397261499129,2.86896334731864,3.258523566546501l67.63370138134087,76.817899979232607,92.709706756089872,105.299392974353395c17.683502514350039,20.084852963151206,48.981923737250327,20.084852963151206,66.664723074320136,0l92.710409933370101-105.299392974353395,67.625966431140114-76.809461851738888c.988667271160011-1.082189850869327,1.935143904858705-2.202351275449473,2.906231743749231-3.300714204007818l2.352831215719561-2.672776883133338Z" style="fill: none;"/>
    </clipPath>
  </defs>
  <g>
    <path d="M861.645390296780533,725.465533281021635l8.2998046875-18.7998046875-20.5-47.80029296875h8.7998046875l16.1005859375,39.39990234375,16.19921875-39.39990234375h8.5l-28.8994140625,66.60009765625h-8.5Z" style="fill: #14a0db;"/>
    <path d="M926.945194984280533,708.365435624771635c-4.734375,0-8.833984375-1.03271484375-12.2998046875-3.10009765625-3.466796875-2.0654296875-6.150390625-4.982421875-8.0498046875-8.75-1.900390625-3.765625-2.8505859375-8.21533203125-2.8505859375-13.349609375,0-5.1328125,.9501953125-9.5830078125,2.8505859375-13.35009765625,1.8994140625-3.765625,4.5830078125-6.68310546875,8.0498046875-8.75,3.4658203125-2.06591796875,7.5654296875-3.10009765625,12.2998046875-3.10009765625,4.666015625,0,8.75,1.0341796875,12.25,3.10009765625,3.5,2.06689453125,6.2001953125,4.984375,8.1005859375,8.75,1.8994140625,3.76708984375,2.849609375,8.21728515625,2.849609375,13.35009765625,0,5.13427734375-.9501953125,9.583984375-2.849609375,13.349609375-1.900390625,3.767578125-4.6005859375,6.6845703125-8.1005859375,8.75-3.5,2.0673828125-7.583984375,3.10009765625-12.25,3.10009765625Zm0-6.5c4.533203125,0,8.166015625-1.61572265625,10.900390625-4.85009765625,2.732421875-3.232421875,4.099609375-7.849609375,4.099609375-13.849609375,0-6.06591796875-1.3671875-10.7001953125-4.099609375-13.900390625-2.734375-3.19970703125-6.3671875-4.7998046875-10.900390625-4.7998046875-4.599609375,0-8.25,1.60009765625-10.9501953125,4.7998046875-2.69921875,3.2001953125-4.0498046875,7.83447265625-4.0498046875,13.900390625,0,6,1.3505859375,10.6171875,4.0498046875,13.849609375,2.7001953125,3.234375,6.3505859375,4.85009765625,10.9501953125,4.85009765625Z" style="fill: #14a0db;"/>
    <path d="M979.545780921780533,708.365435624771635c-11.6669921875,0-17.5-6.4326171875-17.5-19.2998046875v-30.2001953125h8.1005859375v30.10009765625c0,4.33447265625,.8828125,7.5341796875,2.6494140625,9.60009765625,1.765625,2.06689453125,4.5498046875,3.10009765625,8.3505859375,3.10009765625,4.1328125,0,7.5-1.3828125,10.099609375-4.150390625,2.599609375-2.765625,3.900390625-6.44970703125,3.900390625-11.0498046875v-27.60009765625h8.099609375v48.60009765625h-7.900390625v-8.2001953125c-1.5341796875,2.9345703125-3.68359375,5.1845703125-6.44921875,6.75-2.767578125,1.56591796875-5.884765625,2.35009765625-9.3505859375,2.35009765625Z" style="fill: #14a0db;"/>
    <path d="M1018.444218421780533,707.465533281021635v-48.60009765625h7.900390625v8.7001953125c2.599609375-5.86572265625,7.9326171875-9.10009765625,16-9.7001953125l2.900390625-.2998046875,.599609375,7-5.099609375,.60009765625c-4.6005859375,.39990234375-8.1005859375,1.849609375-10.5,4.349609375-2.400390625,2.5-3.6005859375,5.91748046875-3.6005859375,10.25v27.7001953125h-8.2001953125Z" style="fill: #14a0db;"/>
    <path d="M1100.541874671780533,708.365435624771635c-4.8671875,0-9.0673828125-1.0498046875-12.6005859375-3.14990234375-3.5341796875-2.10009765625-6.25-5.0654296875-8.1494140625-8.89990234375-1.900390625-3.8330078125-2.8505859375-8.31591796875-2.8505859375-13.4501953125,0-7.73291015625,2.1005859375-13.8154296875,6.30078125-18.25,4.19921875-4.4326171875,9.96484375-6.64990234375,17.2998046875-6.64990234375,3,0,5.9658203125,.5341796875,8.8994140625,1.60009765625,2.93359375,1.06689453125,5.3662109375,2.56689453125,7.30078125,4.5l-2.80078125,5.89990234375c-1.93359375-1.86572265625-4.0498046875-3.23291015625-6.349609375-4.10009765625-2.2998046875-.86572265625-4.484375-1.2998046875-6.5498046875-1.2998046875-5.0673828125,0-8.9677734375,1.58447265625-11.7001953125,4.75-2.734375,3.1669921875-4.099609375,7.71728515625-4.099609375,13.64990234375,0,5.7998046875,1.365234375,10.38427734375,4.099609375,13.75,2.732421875,3.3671875,6.6328125,5.0498046875,11.7001953125,5.0498046875,2.0654296875,0,4.25-.4326171875,6.5498046875-1.2998046875,2.2998046875-.86572265625,4.416015625-2.265625,6.349609375-4.2001953125l2.80078125,5.900390625c-1.9345703125,1.93408203125-4.384765625,3.44970703125-7.3505859375,4.5498046875-2.966796875,1.10009765625-5.9169921875,1.64990234375-8.849609375,1.64990234375Z" style="fill: #14a0db;"/>
    <path d="M1145.442265296780533,708.365435624771635c-4.734375,0-8.833984375-1.03271484375-12.2998046875-3.10009765625-3.466796875-2.0654296875-6.150390625-4.982421875-8.0498046875-8.75-1.900390625-3.765625-2.8505859375-8.21533203125-2.8505859375-13.349609375,0-5.1328125,.9501953125-9.5830078125,2.8505859375-13.35009765625,1.8994140625-3.765625,4.5830078125-6.68310546875,8.0498046875-8.75,3.4658203125-2.06591796875,7.5654296875-3.10009765625,12.2998046875-3.10009765625,4.666015625,0,8.75,1.0341796875,12.25,3.10009765625,3.5,2.06689453125,6.2001953125,4.984375,8.1005859375,8.75,1.8994140625,3.76708984375,2.849609375,8.21728515625,2.849609375,13.35009765625,0,5.13427734375-.9501953125,9.583984375-2.849609375,13.349609375-1.900390625,3.767578125-4.6005859375,6.6845703125-8.1005859375,8.75-3.5,2.0673828125-7.583984375,3.10009765625-12.25,3.10009765625Zm0-6.5c4.533203125,0,8.166015625-1.61572265625,10.900390625-4.85009765625,2.732421875-3.232421875,4.099609375-7.849609375,4.099609375-13.849609375,0-6.06591796875-1.3671875-10.7001953125-4.099609375-13.900390625-2.734375-3.19970703125-6.3671875-4.7998046875-10.900390625-4.7998046875-4.599609375,0-8.25,1.60009765625-10.9501953125,4.7998046875-2.69921875,3.2001953125-4.0498046875,7.83447265625-4.0498046875,13.900390625,0,6,1.3505859375,10.6171875,4.0498046875,13.849609375,2.7001953125,3.234375,6.3505859375,4.85009765625,10.9501953125,4.85009765625Z" style="fill: #14a0db;"/>
    <path d="M1181.041874671780533,707.465533281021635v-48.60009765625h7.900390625v8.2001953125c1.4658203125-2.93310546875,3.5-5.18310546875,6.099609375-6.75,2.6005859375-1.56591796875,5.6328125-2.35009765625,9.1005859375-2.35009765625,7.599609375,0,12.46484375,3.2998046875,14.599609375,9.89990234375,1.4658203125-3.0654296875,3.6328125-5.48291015625,6.5-7.25,2.865234375-1.765625,6.166015625-2.64990234375,9.900390625-2.64990234375,10.7998046875,0,16.19921875,6.39990234375,16.19921875,19.2001953125v30.2998046875h-8.099609375v-29.89990234375c0-4.4658203125-.7841796875-7.75-2.349609375-9.85009765625-1.5673828125-2.10009765625-4.150390625-3.14990234375-7.75-3.14990234375-3.9345703125,0-7.0673828125,1.39990234375-9.400390625,4.19970703125-2.333984375,2.80029296875-3.5,6.53466796875-3.5,11.2001953125v27.5h-8.099609375v-29.89990234375c0-4.4658203125-.78515625-7.75-2.3505859375-9.85009765625-1.5673828125-2.10009765625-4.1494140625-3.14990234375-7.75-3.14990234375-4,0-7.1494140625,1.39990234375-9.4501953125,4.19970703125-2.2998046875,2.80029296875-3.44921875,6.53466796875-3.44921875,11.2001953125v27.5h-8.1005859375Z" style="fill: #14a0db;"/>
    <path d="M1269.040898109280533,707.465533281021635v-42.2998046875h-9.6005859375v-6.30029296875h9.6005859375v-1.69970703125c0-6.4658203125,1.615234375-11.36572265625,4.849609375-14.7001953125,3.2333984375-3.3330078125,8.2158203125-5.2001953125,14.9501953125-5.60009765625l3.900390625-.19970703125,.69921875,6.19970703125-4.599609375,.30029296875c-4.134765625,.333984375-7.1171875,1.56689453125-8.9501953125,3.69970703125-1.833984375,2.13427734375-2.75,5.234375-2.75,9.30029296875v2.69970703125h14v6.30029296875h-14v42.2998046875h-8.099609375Z" style="fill: #14a0db;"/>
    <path d="M1318.540898109280533,708.365435624771635c-4.734375,0-8.833984375-1.03271484375-12.2998046875-3.10009765625-3.466796875-2.0654296875-6.150390625-4.982421875-8.0498046875-8.75-1.900390625-3.765625-2.8505859375-8.21533203125-2.8505859375-13.349609375,0-5.1328125,.9501953125-9.5830078125,2.8505859375-13.35009765625,1.8994140625-3.765625,4.5830078125-6.68310546875,8.0498046875-8.75,3.4658203125-2.06591796875,7.5654296875-3.10009765625,12.2998046875-3.10009765625,4.666015625,0,8.75,1.0341796875,12.25,3.10009765625,3.5,2.06689453125,6.2001953125,4.984375,8.1005859375,8.75,1.8994140625,3.76708984375,2.849609375,8.21728515625,2.849609375,13.35009765625,0,5.13427734375-.9501953125,9.583984375-2.849609375,13.349609375-1.900390625,3.767578125-4.6005859375,6.6845703125-8.1005859375,8.75-3.5,2.0673828125-7.583984375,3.10009765625-12.25,3.10009765625Zm0-6.5c4.533203125,0,8.166015625-1.61572265625,10.900390625-4.85009765625,2.732421875-3.232421875,4.099609375-7.849609375,4.099609375-13.849609375,0-6.06591796875-1.3671875-10.7001953125-4.099609375-13.900390625-2.734375-3.19970703125-6.3671875-4.7998046875-10.900390625-4.7998046875-4.599609375,0-8.25,1.60009765625-10.9501953125,4.7998046875-2.69921875,3.2001953125-4.0498046875,7.83447265625-4.0498046875,13.900390625,0,6,1.3505859375,10.6171875,4.0498046875,13.849609375,2.7001953125,3.234375,6.3505859375,4.85009765625,10.9501953125,4.85009765625Z" style="fill: #14a0db;"/>
    <path d="M1353.940312171780533,707.465533281021635v-48.60009765625h7.900390625v8.7001953125c2.599609375-5.86572265625,7.9326171875-9.10009765625,16-9.7001953125l2.900390625-.2998046875,.599609375,7-5.099609375,.60009765625c-4.6005859375,.39990234375-8.1005859375,1.849609375-10.5,4.349609375-2.400390625,2.5-3.6005859375,5.91748046875-3.6005859375,10.25v27.7001953125h-8.2001953125Z" style="fill: #14a0db;"/>
    <path d="M1411.837773109280533,708.365435624771635c-5.734375,0-10.0341796875-1.515625-12.8994140625-4.5498046875-2.8671875-3.03271484375-4.2998046875-7.41552734375-4.2998046875-13.14990234375v-25.5h-9.5v-6.30029296875h9.5v-14.89990234375h8.099609375v14.89990234375h15.400390625v6.30029296875h-15.400390625v24.69970703125c0,3.80029296875,.7998046875,6.6845703125,2.400390625,8.64990234375,1.599609375,1.96728515625,4.19921875,2.9501953125,7.7998046875,2.9501953125,1.0654296875,0,2.1328125-.1328125,3.2001953125-.39990234375,1.0654296875-.265625,2.0322265625-.53271484375,2.8994140625-.80029296875l1.400390625,6.2001953125c-.8671875,.46728515625-2.134765625,.89990234375-3.7998046875,1.2998046875-1.66796875,.400390625-3.267578125,.60009765625-4.80078125,.60009765625Z" style="fill: #14a0db;"/>
    <path d="M1442.637577796780533,708.365435624771635c-3.3349609375,0-6.3173828125-.64990234375-8.9501953125-1.94970703125-2.634765625-1.30029296875-4.7177734375-3.0830078125-6.25-5.35009765625-1.5341796875-2.265625-2.2998046875-4.80029296875-2.2998046875-7.60009765625,0-3.53271484375,.9150390625-6.3330078125,2.75-8.39990234375,1.83203125-2.06591796875,4.865234375-3.55029296875,9.099609375-4.4501953125,4.232421875-.89990234375,10.015625-1.35009765625,17.349609375-1.35009765625h3.2001953125v-3.099609375c0-4.1328125-.849609375-7.11572265625-2.5498046875-8.9501953125-1.7001953125-1.8330078125-4.4169921875-2.75-8.150390625-2.75-2.93359375,0-5.7666015625,.4169921875-8.5,1.25-2.734375,.83447265625-5.5341796875,2.1845703125-8.3994140625,4.0498046875l-2.7998046875-5.89990234375c2.5322265625-1.7998046875,5.615234375-3.23291015625,9.25-4.2998046875,3.6328125-1.06591796875,7.115234375-1.60009765625,10.44921875-1.60009765625,6.265625,0,10.916015625,1.5341796875,13.9501953125,4.60009765625,3.033203125,3.06689453125,4.5498046875,7.83447265625,4.5498046875,14.2998046875v30.60009765625h-7.599609375v-8.39990234375c-1.267578125,2.8671875-3.216796875,5.13427734375-5.849609375,6.7998046875-2.634765625,1.66552734375-5.7177734375,2.5-9.25,2.5Zm1.2998046875-6.10009765625c4,0,7.265625-1.3828125,9.7998046875-4.14990234375,2.533203125-2.765625,3.7998046875-6.28271484375,3.7998046875-10.5498046875v-3h-3.099609375c-5.400390625,0-9.650390625,.25-12.75,.75-3.1005859375,.5-5.267578125,1.3671875-6.5,2.60009765625-1.234375,1.234375-1.8505859375,2.9169921875-1.8505859375,5.0498046875,0,2.734375,.9501953125,4.96728515625,2.8505859375,6.7001953125,1.8994140625,1.734375,4.482421875,2.599609375,7.75,2.599609375Z" style="fill: #14a0db;"/>
    <path d="M1504.937382484280533,708.365435624771635c-3.8671875,0-7.25-.8671875-10.150390625-2.60009765625-2.8994140625-1.732421875-5.083984375-4.099609375-6.5498046875-7.099609375v8.7998046875h-7.900390625v-70.5h8.1005859375v30.2998046875c1.3994140625-2.865234375,3.5654296875-5.1328125,6.5-6.7998046875,2.9326171875-1.66552734375,6.265625-2.5,10-2.5,4.3330078125,0,8.115234375,1.01708984375,11.349609375,3.0498046875,3.2333984375,2.03466796875,5.7333984375,4.9345703125,7.5,8.7001953125,1.765625,3.76708984375,2.650390625,8.25,2.650390625,13.4501953125,0,5.13427734375-.884765625,9.583984375-2.650390625,13.349609375-1.7666015625,3.767578125-4.2666015625,6.6845703125-7.5,8.75-3.234375,2.0673828125-7.0166015625,3.10009765625-11.349609375,3.10009765625Zm-1.7001953125-6.5c4.533203125,0,8.166015625-1.61572265625,10.900390625-4.85009765625,2.732421875-3.232421875,4.099609375-7.849609375,4.099609375-13.849609375,0-6.06591796875-1.3671875-10.7001953125-4.099609375-13.900390625-2.734375-3.19970703125-6.3671875-4.7998046875-10.900390625-4.7998046875-4.5341796875,0-8.1669921875,1.60009765625-10.900390625,4.7998046875-2.734375,3.2001953125-4.099609375,7.83447265625-4.099609375,13.900390625,0,6,1.365234375,10.6171875,4.099609375,13.849609375,2.7333984375,3.234375,6.3662109375,4.85009765625,10.900390625,4.85009765625Z" style="fill: #14a0db;"/>
    <path d="M1553.536015296780533,708.365435624771635c-4.9345703125,0-8.650390625-1.44970703125-11.150390625-4.35009765625-2.5-2.89990234375-3.75-7.115234375-3.75-12.64990234375v-54.39990234375h8.1005859375v53.7998046875c0,7.134765625,2.8330078125,10.7001953125,8.5,10.7001953125,1.6650390625,0,3.1650390625-.2001953125,4.5-.60009765625l-.2001953125,6.80029296875c-2.0673828125,.46533203125-4.0673828125,.69970703125-6,.69970703125Z" style="fill: #14a0db;"/>
    <path d="M1589.636601234280533,708.365435624771635c-7.6669921875,0-13.734375-2.25-18.2001953125-6.75-4.466796875-4.5-6.7001953125-10.61572265625-6.7001953125-18.35009765625,0-5,1-9.41552734375,3-13.25,2-3.83251953125,4.75-6.7998046875,8.25-8.89990234375s7.55078125-3.14990234375,12.150390625-3.14990234375c6.599609375,0,11.765625,2.1171875,15.5,6.35009765625,3.732421875,4.234375,5.599609375,10.0498046875,5.599609375,17.44970703125v3.10009765625h-36.599609375c.265625,5.53466796875,1.865234375,9.75,4.7998046875,12.64990234375,2.9326171875,2.900390625,7,4.35009765625,12.2001953125,4.35009765625,2.9326171875,0,5.732421875-.44970703125,8.400390625-1.35009765625,2.6650390625-.89990234375,5.19921875-2.3828125,7.599609375-4.44970703125l2.7998046875,5.69970703125c-2.2001953125,2.0673828125-5,3.6845703125-8.3994140625,4.85009765625-3.400390625,1.16552734375-6.8671875,1.75-10.400390625,1.75Zm-1.2998046875-44.39990234375c-4.6005859375,0-8.234375,1.4345703125-10.900390625,4.2998046875-2.6669921875,2.8671875-4.234375,6.634765625-4.7001953125,11.30029296875h29.5c-.19921875-4.93310546875-1.484375-8.765625-3.849609375-11.5-2.3671875-2.73291015625-5.716796875-4.10009765625-10.0498046875-4.10009765625Z" style="fill: #14a0db;"/>
    <path d="M1668.134648109280533,726.365435624771635c-4.19921875,0-8.1494140625-.5498046875-11.849609375-1.64990234375s-6.984375-2.75-9.849609375-4.9501953125l2.69921875-5.89990234375c3,2.1328125,5.9833984375,3.66552734375,8.9501953125,4.60009765625,2.9658203125,.9326171875,6.1826171875,1.39990234375,9.650390625,1.39990234375,9.599609375,0,14.3994140625-4.93408203125,14.3994140625-14.7998046875v-8.60009765625c-1.3994140625,3.0673828125-3.583984375,5.484375-6.5498046875,7.25-2.966796875,1.76708984375-6.349609375,2.64990234375-10.1494140625,2.64990234375-4.4677734375,0-8.3349609375-1.03271484375-11.6005859375-3.10009765625-3.2666015625-2.0654296875-5.7841796875-4.91552734375-7.5498046875-8.5498046875-1.767578125-3.6328125-2.650390625-7.85009765625-2.650390625-12.64990234375,0-4.80029296875,.8828125-9.015625,2.650390625-12.64990234375,1.765625-3.6328125,4.283203125-6.4501953125,7.5498046875-8.4501953125,3.265625-2,7.1328125-3,11.6005859375-3,3.7998046875,0,7.1826171875,.8671875,10.1494140625,2.60009765625,2.9658203125,1.734375,5.150390625,4.10009765625,6.5498046875,7.10009765625v-8.80029296875h7.900390625v45.10009765625c0,7.4658203125-1.849609375,13.0654296875-5.5498046875,16.7998046875-3.7001953125,3.73291015625-9.150390625,5.60009765625-16.3505859375,5.60009765625Zm-1.19921875-26.60009765625c4.6650390625,0,8.365234375-1.599609375,11.099609375-4.7998046875,2.732421875-3.2001953125,4.099609375-7.5,4.099609375-12.89990234375s-1.3671875-9.68310546875-4.099609375-12.85009765625c-2.734375-3.16552734375-6.4345703125-4.75-11.099609375-4.75-4.6005859375,0-8.267578125,1.58447265625-11,4.75-2.734375,3.1669921875-4.1005859375,7.4501953125-4.1005859375,12.85009765625s1.3662109375,9.69970703125,4.1005859375,12.89990234375c2.732421875,3.2001953125,6.3994140625,4.7998046875,11,4.7998046875Z" style="fill: #14a0db;"/>
    <path d="M1720.535038734280533,708.365435624771635c-3.3349609375,0-6.3173828125-.64990234375-8.9501953125-1.94970703125-2.634765625-1.30029296875-4.7177734375-3.0830078125-6.25-5.35009765625-1.5341796875-2.265625-2.2998046875-4.80029296875-2.2998046875-7.60009765625,0-3.53271484375,.9150390625-6.3330078125,2.75-8.39990234375,1.83203125-2.06591796875,4.865234375-3.55029296875,9.099609375-4.4501953125,4.232421875-.89990234375,10.015625-1.35009765625,17.349609375-1.35009765625h3.2001953125v-3.099609375c0-4.1328125-.849609375-7.11572265625-2.5498046875-8.9501953125-1.7001953125-1.8330078125-4.4169921875-2.75-8.150390625-2.75-2.93359375,0-5.7666015625,.4169921875-8.5,1.25-2.734375,.83447265625-5.5341796875,2.1845703125-8.3994140625,4.0498046875l-2.7998046875-5.89990234375c2.5322265625-1.7998046875,5.615234375-3.23291015625,9.25-4.2998046875,3.6328125-1.06591796875,7.115234375-1.60009765625,10.44921875-1.60009765625,6.265625,0,10.916015625,1.5341796875,13.9501953125,4.60009765625,3.033203125,3.06689453125,4.5498046875,7.83447265625,4.5498046875,14.2998046875v30.60009765625h-7.599609375v-8.39990234375c-1.267578125,2.8671875-3.216796875,5.13427734375-5.849609375,6.7998046875-2.634765625,1.66552734375-5.7177734375,2.5-9.25,2.5Zm1.2998046875-6.10009765625c4,0,7.265625-1.3828125,9.7998046875-4.14990234375,2.533203125-2.765625,3.7998046875-6.28271484375,3.7998046875-10.5498046875v-3h-3.099609375c-5.400390625,0-9.650390625,.25-12.75,.75-3.1005859375,.5-5.267578125,1.3671875-6.5,2.60009765625-1.234375,1.234375-1.8505859375,2.9169921875-1.8505859375,5.0498046875,0,2.734375,.9501953125,4.96728515625,2.8505859375,6.7001953125,1.8994140625,1.734375,4.482421875,2.599609375,7.75,2.599609375Z" style="fill: #14a0db;"/>
    <path d="M1777.734257484280533,708.365435624771635c-5.734375,0-10.0341796875-1.515625-12.8994140625-4.5498046875-2.8671875-3.03271484375-4.2998046875-7.41552734375-4.2998046875-13.14990234375v-25.5h-9.5v-6.30029296875h9.5v-14.89990234375h8.099609375v14.89990234375h15.400390625v6.30029296875h-15.400390625v24.69970703125c0,3.80029296875,.7998046875,6.6845703125,2.400390625,8.64990234375,1.599609375,1.96728515625,4.19921875,2.9501953125,7.7998046875,2.9501953125,1.0654296875,0,2.1328125-.1328125,3.2001953125-.39990234375,1.0654296875-.265625,2.0322265625-.53271484375,2.8994140625-.80029296875l1.400390625,6.2001953125c-.8671875,.46728515625-2.134765625,.89990234375-3.7998046875,1.2998046875-1.66796875,.400390625-3.267578125,.60009765625-4.80078125,.60009765625Z" style="fill: #14a0db;"/>
    <path d="M1793.233280921780533,707.465533281021635v-70.5h8.1005859375v29.89990234375c1.599609375-2.9326171875,3.849609375-5.14990234375,6.75-6.64990234375,2.8994140625-1.5,6.1494140625-2.25,9.75-2.25,11.5322265625,0,17.2998046875,6.39990234375,17.2998046875,19.2001953125v30.2998046875h-8.099609375v-29.7998046875c0-4.533203125-.884765625-7.85009765625-2.650390625-9.9501953125-1.767578125-2.10009765625-4.583984375-3.14990234375-8.4501953125-3.14990234375-4.466796875,0-8.0166015625,1.38427734375-10.6494140625,4.14990234375-2.634765625,2.76708984375-3.9501953125,6.4501953125-3.9501953125,11.0498046875v27.7001953125h-8.1005859375Z" style="fill: #14a0db;"/>
    <path d="M1871.933476234280533,708.365435624771635c-7.6669921875,0-13.734375-2.25-18.2001953125-6.75-4.466796875-4.5-6.7001953125-10.61572265625-6.7001953125-18.35009765625,0-5,1-9.41552734375,3-13.25,2-3.83251953125,4.75-6.7998046875,8.25-8.89990234375s7.55078125-3.14990234375,12.150390625-3.14990234375c6.599609375,0,11.765625,2.1171875,15.5,6.35009765625,3.732421875,4.234375,5.599609375,10.0498046875,5.599609375,17.44970703125v3.10009765625h-36.599609375c.265625,5.53466796875,1.865234375,9.75,4.7998046875,12.64990234375,2.9326171875,2.900390625,7,4.35009765625,12.2001953125,4.35009765625,2.9326171875,0,5.732421875-.44970703125,8.400390625-1.35009765625,2.6650390625-.89990234375,5.19921875-2.3828125,7.599609375-4.44970703125l2.7998046875,5.69970703125c-2.2001953125,2.0673828125-5,3.6845703125-8.3994140625,4.85009765625-3.400390625,1.16552734375-6.8671875,1.75-10.400390625,1.75Zm-1.2998046875-44.39990234375c-4.6005859375,0-8.234375,1.4345703125-10.900390625,4.2998046875-2.6669921875,2.8671875-4.234375,6.634765625-4.7001953125,11.30029296875h29.5c-.19921875-4.93310546875-1.484375-8.765625-3.849609375-11.5-2.3671875-2.73291015625-5.716796875-4.10009765625-10.0498046875-4.10009765625Z" style="fill: #14a0db;"/>
    <path d="M1903.232304359280533,707.465533281021635v-48.60009765625h7.900390625v8.7001953125c2.599609375-5.86572265625,7.9326171875-9.10009765625,16-9.7001953125l2.900390625-.2998046875,.599609375,7-5.099609375,.60009765625c-4.6005859375,.39990234375-8.1005859375,1.849609375-10.5,4.349609375-2.400390625,2.5-3.6005859375,5.91748046875-3.6005859375,10.25v27.7001953125h-8.2001953125Z" style="fill: #14a0db;"/>
    <path d="M1938.031132484280533,646.765337968521635v-9.099609375h10v9.099609375h-10Zm1,60.7001953125v-48.60009765625h8.1005859375v48.60009765625h-8.1005859375Z" style="fill: #14a0db;"/>
    <path d="M1962.230351234280533,707.465533281021635v-48.60009765625h7.900390625v8.30029296875c1.599609375-3.06591796875,3.865234375-5.36572265625,6.7998046875-6.900390625,2.9326171875-1.53271484375,6.2333984375-2.2998046875,9.900390625-2.2998046875,11.5322265625,0,17.2998046875,6.39990234375,17.2998046875,19.2001953125v30.2998046875h-8.099609375v-29.7998046875c0-4.533203125-.884765625-7.85009765625-2.650390625-9.9501953125-1.767578125-2.10009765625-4.583984375-3.14990234375-8.4501953125-3.14990234375-4.466796875,0-8.0166015625,1.38427734375-10.6494140625,4.14990234375-2.634765625,2.76708984375-3.9501953125,6.4501953125-3.9501953125,11.0498046875v27.7001953125h-8.1005859375Z" style="fill: #14a0db;"/>
    <path d="M2040.530155921780533,726.365435624771635c-4.19921875,0-8.1494140625-.5498046875-11.849609375-1.64990234375s-6.984375-2.75-9.849609375-4.9501953125l2.69921875-5.89990234375c3,2.1328125,5.9833984375,3.66552734375,8.9501953125,4.60009765625,2.9658203125,.9326171875,6.1826171875,1.39990234375,9.650390625,1.39990234375,9.599609375,0,14.3994140625-4.93408203125,14.3994140625-14.7998046875v-8.60009765625c-1.3994140625,3.0673828125-3.583984375,5.484375-6.5498046875,7.25-2.966796875,1.76708984375-6.349609375,2.64990234375-10.1494140625,2.64990234375-4.4677734375,0-8.3349609375-1.03271484375-11.6005859375-3.10009765625-3.2666015625-2.0654296875-5.7841796875-4.91552734375-7.5498046875-8.5498046875-1.767578125-3.6328125-2.650390625-7.85009765625-2.650390625-12.64990234375,0-4.80029296875,.8828125-9.015625,2.650390625-12.64990234375,1.765625-3.6328125,4.283203125-6.4501953125,7.5498046875-8.4501953125,3.265625-2,7.1328125-3,11.6005859375-3,3.7998046875,0,7.1826171875,.8671875,10.1494140625,2.60009765625,2.9658203125,1.734375,5.150390625,4.10009765625,6.5498046875,7.10009765625v-8.80029296875h7.900390625v45.10009765625c0,7.4658203125-1.849609375,13.0654296875-5.5498046875,16.7998046875-3.7001953125,3.73291015625-9.150390625,5.60009765625-16.3505859375,5.60009765625Zm-1.19921875-26.60009765625c4.6650390625,0,8.365234375-1.599609375,11.099609375-4.7998046875,2.732421875-3.2001953125,4.099609375-7.5,4.099609375-12.89990234375s-1.3671875-9.68310546875-4.099609375-12.85009765625c-2.734375-3.16552734375-6.4345703125-4.75-11.099609375-4.75-4.6005859375,0-8.267578125,1.58447265625-11,4.75-2.734375,3.1669921875-4.1005859375,7.4501953125-4.1005859375,12.85009765625s1.3662109375,9.69970703125,4.1005859375,12.89990234375c2.732421875,3.2001953125,6.3994140625,4.7998046875,11,4.7998046875Z" style="fill: #14a0db;"/>
    <path d="M2119.729374671780533,708.365435624771635c-3.7998046875,0-7.400390625-.5341796875-10.7998046875-1.60009765625-3.400390625-1.0654296875-6.2001953125-2.5654296875-8.400390625-4.5l2.6005859375-5.69970703125c2.3994140625,1.93408203125,5.0498046875,3.35009765625,7.94921875,4.25,2.900390625,.89990234375,5.8505859375,1.35009765625,8.8505859375,1.35009765625,3.7998046875,0,6.6650390625-.7001953125,8.599609375-2.10009765625,1.9326171875-1.39990234375,2.900390625-3.30029296875,2.900390625-5.7001953125,0-1.86572265625-.634765625-3.35009765625-1.900390625-4.44970703125-1.2666015625-1.10009765625-3.2666015625-1.9501953125-6-2.55029296875l-9.099609375-2c-8.267578125-1.7998046875-12.400390625-6.0654296875-12.400390625-12.7998046875,0-4.39990234375,1.75-7.93310546875,5.25-10.60009765625,3.5-2.66552734375,8.0830078125-4,13.75-4,3.3330078125,0,6.515625,.51708984375,9.5498046875,1.5498046875,3.033203125,1.03466796875,5.55078125,2.55029296875,7.55078125,4.55029296875l-2.7001953125,5.69970703125c-1.9345703125-1.7998046875-4.1845703125-3.1826171875-6.75-4.14990234375-2.5673828125-.96533203125-5.1171875-1.44970703125-7.650390625-1.44970703125-3.734375,0-6.5673828125,.734375-8.5,2.19970703125-1.9345703125,1.46728515625-2.8994140625,3.39990234375-2.8994140625,5.80029296875,0,3.734375,2.46484375,6.13427734375,7.3994140625,7.19970703125l9.1005859375,1.89990234375c4.265625,.9345703125,7.5,2.41748046875,9.69921875,4.4501953125,2.2001953125,2.0341796875,3.30078125,4.7841796875,3.30078125,8.25,0,4.46728515625-1.767578125,7.984375-5.30078125,10.5498046875-3.5341796875,2.5673828125-8.234375,3.85009765625-14.099609375,3.85009765625Z" style="fill: #14a0db;"/>
    <path d="M2151.427616859280533,725.465533281021635v-66.60009765625h7.900390625v8.7001953125c1.4658203125-3,3.650390625-5.35009765625,6.5498046875-7.05029296875,2.900390625-1.69970703125,6.283203125-2.5498046875,10.150390625-2.5498046875,4.3330078125,0,8.115234375,1.01708984375,11.349609375,3.0498046875,3.2333984375,2.03466796875,5.7333984375,4.9345703125,7.5,8.7001953125,1.765625,3.76708984375,2.650390625,8.25,2.650390625,13.4501953125,0,5.13427734375-.884765625,9.583984375-2.650390625,13.349609375-1.7666015625,3.767578125-4.2666015625,6.6845703125-7.5,8.75-3.234375,2.0673828125-7.0166015625,3.10009765625-11.349609375,3.10009765625-3.734375,0-7.0673828125-.83447265625-10-2.5-2.9345703125-1.66552734375-5.1005859375-3.96533203125-6.5-6.89990234375v26.5h-8.1005859375Zm22.900390625-23.60009765625c4.533203125,0,8.166015625-1.61572265625,10.900390625-4.85009765625,2.732421875-3.232421875,4.099609375-7.849609375,4.099609375-13.849609375,0-6.06591796875-1.3671875-10.7001953125-4.099609375-13.900390625-2.734375-3.19970703125-6.3671875-4.7998046875-10.900390625-4.7998046875-4.5341796875,0-8.1669921875,1.60009765625-10.900390625,4.7998046875-2.734375,3.2001953125-4.099609375,7.83447265625-4.099609375,13.900390625,0,6,1.365234375,10.6171875,4.099609375,13.849609375,2.7333984375,3.234375,6.3662109375,4.85009765625,10.900390625,4.85009765625Z" style="fill: #14a0db;"/>
    <path d="M2225.027226234280533,708.365435624771635c-3.3349609375,0-6.3173828125-.64990234375-8.9501953125-1.94970703125-2.634765625-1.30029296875-4.7177734375-3.0830078125-6.25-5.35009765625-1.5341796875-2.265625-2.2998046875-4.80029296875-2.2998046875-7.60009765625,0-3.53271484375,.9150390625-6.3330078125,2.75-8.39990234375,1.83203125-2.06591796875,4.865234375-3.55029296875,9.099609375-4.4501953125,4.232421875-.89990234375,10.015625-1.35009765625,17.349609375-1.35009765625h3.2001953125v-3.099609375c0-4.1328125-.849609375-7.11572265625-2.5498046875-8.9501953125-1.7001953125-1.8330078125-4.4169921875-2.75-8.150390625-2.75-2.93359375,0-5.7666015625,.4169921875-8.5,1.25-2.734375,.83447265625-5.5341796875,2.1845703125-8.3994140625,4.0498046875l-2.7998046875-5.89990234375c2.5322265625-1.7998046875,5.615234375-3.23291015625,9.25-4.2998046875,3.6328125-1.06591796875,7.115234375-1.60009765625,10.44921875-1.60009765625,6.265625,0,10.916015625,1.5341796875,13.9501953125,4.60009765625,3.033203125,3.06689453125,4.5498046875,7.83447265625,4.5498046875,14.2998046875v30.60009765625h-7.599609375v-8.39990234375c-1.267578125,2.8671875-3.216796875,5.13427734375-5.849609375,6.7998046875-2.634765625,1.66552734375-5.7177734375,2.5-9.25,2.5Zm1.2998046875-6.10009765625c4,0,7.265625-1.3828125,9.7998046875-4.14990234375,2.533203125-2.765625,3.7998046875-6.28271484375,3.7998046875-10.5498046875v-3h-3.099609375c-5.400390625,0-9.650390625,.25-12.75,.75-3.1005859375,.5-5.267578125,1.3671875-6.5,2.60009765625-1.234375,1.234375-1.8505859375,2.9169921875-1.8505859375,5.0498046875,0,2.734375,.9501953125,4.96728515625,2.8505859375,6.7001953125,1.8994140625,1.734375,4.482421875,2.599609375,7.75,2.599609375Z" style="fill: #14a0db;"/>
    <path d="M2283.327030921780533,708.365435624771635c-4.8671875,0-9.0673828125-1.0498046875-12.6005859375-3.14990234375-3.5341796875-2.10009765625-6.25-5.0654296875-8.1494140625-8.89990234375-1.900390625-3.8330078125-2.8505859375-8.31591796875-2.8505859375-13.4501953125,0-7.73291015625,2.1005859375-13.8154296875,6.30078125-18.25,4.19921875-4.4326171875,9.96484375-6.64990234375,17.2998046875-6.64990234375,3,0,5.9658203125,.5341796875,8.8994140625,1.60009765625,2.93359375,1.06689453125,5.3662109375,2.56689453125,7.30078125,4.5l-2.80078125,5.89990234375c-1.93359375-1.86572265625-4.0498046875-3.23291015625-6.349609375-4.10009765625-2.2998046875-.86572265625-4.484375-1.2998046875-6.5498046875-1.2998046875-5.0673828125,0-8.9677734375,1.58447265625-11.7001953125,4.75-2.734375,3.1669921875-4.099609375,7.71728515625-4.099609375,13.64990234375,0,5.7998046875,1.365234375,10.38427734375,4.099609375,13.75,2.732421875,3.3671875,6.6328125,5.0498046875,11.7001953125,5.0498046875,2.0654296875,0,4.25-.4326171875,6.5498046875-1.2998046875,2.2998046875-.86572265625,4.416015625-2.265625,6.349609375-4.2001953125l2.80078125,5.900390625c-1.9345703125,1.93408203125-4.384765625,3.44970703125-7.3505859375,4.5498046875-2.966796875,1.10009765625-5.9169921875,1.64990234375-8.849609375,1.64990234375Z" style="fill: #14a0db;"/>
    <path d="M2329.927616859280533,708.365435624771635c-7.6669921875,0-13.734375-2.25-18.2001953125-6.75-4.466796875-4.5-6.7001953125-10.61572265625-6.7001953125-18.35009765625,0-5,1-9.41552734375,3-13.25,2-3.83251953125,4.75-6.7998046875,8.25-8.89990234375s7.55078125-3.14990234375,12.150390625-3.14990234375c6.599609375,0,11.765625,2.1171875,15.5,6.35009765625,3.732421875,4.234375,5.599609375,10.0498046875,5.599609375,17.44970703125v3.10009765625h-36.599609375c.265625,5.53466796875,1.865234375,9.75,4.7998046875,12.64990234375,2.9326171875,2.900390625,7,4.35009765625,12.2001953125,4.35009765625,2.9326171875,0,5.732421875-.44970703125,8.400390625-1.35009765625,2.6650390625-.89990234375,5.19921875-2.3828125,7.599609375-4.44970703125l2.7998046875,5.69970703125c-2.2001953125,2.0673828125-5,3.6845703125-8.3994140625,4.85009765625-3.400390625,1.16552734375-6.8671875,1.75-10.400390625,1.75Zm-1.2998046875-44.39990234375c-4.6005859375,0-8.234375,1.4345703125-10.900390625,4.2998046875-2.6669921875,2.8671875-4.234375,6.634765625-4.7001953125,11.30029296875h29.5c-.19921875-4.93310546875-1.484375-8.765625-3.849609375-11.5-2.3671875-2.73291015625-5.716796875-4.10009765625-10.0498046875-4.10009765625Z" style="fill: #14a0db;"/>
  </g>
  <g>
    <g>
      <path d="M608.409978789009983,540.263991220332173c.09914799804028-.112508366564725,.16665301797002-.236267569784104,.264394661431652-.349479113632697,39.326596354378125-45.873880110993923,63.138288959899-105.439325255269068,63.138288959899-170.600655281405125,0-144.881242685376492-117.448890208450393-262.330132893823247-262.330132893830523-262.330132893823247S147.151693445401179,224.43261413991786,147.151693445401179,369.313856825294351c0,65.160626848848551,23.810989428218818,124.724665638536862,63.136179428020114,170.598545749531695,.098444820749137,.113914721143374,.166653017968201,.237673924358205,.266504193299625,.351588645506126l2.383067839240539,2.706529393100936c.959133824930177,1.084299382739118,1.892250090109883,2.190397261499129,2.86896334731864,3.258523566546501l67.63370138134087,76.817899979232607,92.709706756089872,105.299392974353395c17.683502514350039,20.084852963151206,48.981923737250327,20.084852963151206,66.664723074320136,0l92.710409933370101-105.299392974353395,67.625966431140114-76.809461851738888c.988667271160011-1.082189850869327,1.935143904858705-2.202351275449473,2.906231743749231-3.300714204007818l2.352831215719561-2.672776883133338Z" style="fill: #14a0db;"/>
      <g style="clip-path: url(#clippath);">
        <g>
          <path d="M684.846190175860102,547.288057805877543c0-52.895903220472974-43.907717831329137-95.777052716784965-98.069941099998687-95.777052716784965-54.162786672091897,0-98.069941100000506,42.881149496311991-98.069941100000506,95.777052716784965,0,1.977530074425886,.18197930091992,3.909390979089949,.303111033739697,5.857208581590385h-.303111033739697v103.356484206829919h196.139882199999192v-103.356484206829919h-.303111033739697c.121131732819777-1.947817602500436,.303111033739697-3.879678507164499,.303111033739697-5.857208581590385Z" style="fill: #acc9e7;"/>
          <path d="M643.374458278600287,413.800956081671757c0,31.25832780867313-25.33988139406938,56.598209202735234-56.598209202738872,56.598209202757062-31.258327808651302-.000000000021828-56.598209202740691-25.339881394083932-56.598209202740691-56.598209202757062,.000000000020009-31.258327808653121,25.339881394089389-56.598209202715225,56.598209202700673-56.598209202715225,31.258327808669492,0,56.598209202749786,25.339881394085751,56.598209202778889,56.598209202715225Z" style="fill: #acc9e7;"/>
          <path d="M330.258047879869991,547.288057805877543c0-52.895903220472974-43.907717831329137-95.777052716784965-98.069941099998687-95.777052716784965-54.162786672080983,0-98.069941100000506,42.881149496311991-98.069941100000506,95.777052716784965,0,1.977530074425886,.18197930091992,3.909390979089949,.303111033739697,5.857208581590385h-.303111033739697v103.356484206829919h196.139882199999192v-103.356484206829919h-.303111033739697c.121131732819777-1.947817602500436,.303111033739697-3.879678507164499,.303111033739697-5.857208581590385Z" style="fill: #acc9e7;"/>
          <path d="M288.786315982610176,413.800956081671757c0,31.25832780867313-25.339881394060285,56.598209202735234-56.598209202738872,56.598209202757062-31.258327808651302-.000000000021828-56.598209202729777-25.339881394083932-56.598209202729777-56.598209202757062,.00000000001819-31.258327808653121,25.339881394078475-56.598209202715225,56.598209202689759-56.598209202715225,31.258327808669492,0,56.598209202758881,25.339881394085751,56.598209202778889,56.598209202715225Z" style="fill: #acc9e7;"/>
          <circle cx="409.482177927858174" cy="368.087815771877558" r="83.423189318575481" style="fill: #f1f2f2;"/>
          <path d="M405.350667219590832,436.285980993319754c-80.992774911710512,2.327732278314215-151.990067766020729,70.020913260206726-172.614987699780613,165.437805554476654-.182364277989109,48.555390990179149-.365208461949805,97.110494392985856-.547572739938914,145.665885383161367h354.58814229599011v-145.665885383161367c-21.492589972151109-99.190901521869819-97.291822209330348-167.855840271076886-181.425581856270583-165.437805554476654Z" style="fill: #f1f2f2;"/>
        </g>
        <rect x="334.004817906350581" y="722.263810221584208" width="145.367800908550635" height="37.307868685147696" style="fill: #acc9e7;"/>
      </g>
    </g>
    <path d="M219.057327899650772,532.206145913964065l64.382912764989669,73.125516024134413,92.709706756078958,105.299392974349757c1.635590378900815,1.929870075182407,13.509442114911508,15.460759097466507,33.366114047130395,15.445289197064994,19.816590826640095-.015469900401513,31.658096407270932-13.509793703553441,33.29860902719156-15.445289197064994l92.710409933379196-105.299392974349757,64.382209587700345-73.125516024134413" style="fill: none; stroke: #acc9e7; stroke-miterlimit: 10; stroke-width: 24px;"/>
  </g>
  <g>
    <path d="M875.759648109280533,547.022173906021635c18.1875,0,34.62890625-7.130859375,49.328125-21.3896484375,15.27734375-14.5517578125,22.91796875-31.50146484375,22.91796875-50.85498046875-16.587890625,24.0087890625-40.671875,36.01318359375-72.24609375,36.01318359375-34.630859375,0-64.244140625-12.29443359375-88.83203125-36.88623046875-24.591796875-24.58837890625-36.88671875-54.20068359375-36.88671875-88.83251953125,0-34.62841796875,12.294921875-64.24072265625,36.88671875-88.83251953125,24.587890625-24.58837890625,54.201171875-36.88623046875,88.83203125-36.88623046875,34.486328125,0,64.0234375,12.22265625,88.615234375,36.66796875,24.587890625,24.30224609375,36.95703125,53.8388671875,37.103515625,88.6142578125v90.14208984375c0,34.04833984375-13.169921875,63.73193359375-39.50390625,89.05029296875-25.466796875,24.4453125-54.205078125,36.66796875-86.21484375,36.66796875-49.037109375,0-85.775390625-19.0634765625-110.220703125-57.18359375-2.9140625-4.5126953125-4.365234375-9.16796875-4.365234375-13.96875,0-2.9130859375,.5078125-5.822265625,1.52734375-8.73046875,2.619140625-8.1513671875,8-13.67578125,16.150390625-16.587890625l.65625-.21875c3.634765625-1.3095703125,7.126953125-1.96484375,10.4765625-1.96484375,8.146484375,0,14.984375,4.076171875,20.515625,12.22265625,14.40625,21.9697265625,36.15625,32.9580078125,65.259765625,32.9580078125Zm72.24609375-163.259765625c-.294921875-19.6435546875-7.49609375-36.37451171875-21.609375-50.2001953125-13.96875-13.822265625-30.849609375-20.73486328125-50.63671875-20.73486328125-20.080078125,0-37.1796875,7.0595703125-51.291015625,21.17138671875-13.96875,14.115234375-20.953125,31.1396484375-20.953125,51.0732421875,0,20.080078125,6.984375,37.1796875,20.953125,51.29150390625,14.111328125,13.96875,31.2109375,20.953125,51.291015625,20.953125s37.10546875-6.984375,51.07421875-20.953125c14.111328125-14.11181640625,21.171875-31.21142578125,21.171875-51.29150390625v-1.3095703125Z" style="fill: #14a0db;"/>
    <path d="M1250.742069984280533,296.239459062271635c24.587890625,24.591796875,36.88671875,54.2041015625,36.88671875,88.83251953125v99.30908203125c0,7.4208984375-2.619140625,13.607421875-7.857421875,18.55224609375-5.23828125,5.23828125-11.42578125,7.857421875-18.552734375,7.857421875h-.654296875c-7.130859375,0-13.314453125-2.619140625-18.552734375-7.857421875-5.23828125-4.94482421875-7.857421875-11.13134765625-7.857421875-18.55224609375-16.587890625,17.60791015625-40.671875,26.40966796875-72.244140625,26.40966796875-34.6328125,0-64.244140625-12.29443359375-88.83203125-36.88623046875-24.59375-24.58837890625-36.88671875-54.20068359375-36.88671875-88.83251953125,0-34.62841796875,12.29296875-64.24072265625,36.88671875-88.83251953125,24.587890625-24.58837890625,54.19921875-36.88623046875,88.83203125-36.88623046875,34.62890625,0,64.240234375,12.2978515625,88.83203125,36.88623046875Zm-140.123046875,37.75927734375c-13.96875,14.115234375-20.953125,31.1396484375-20.953125,51.0732421875,0,20.080078125,6.984375,37.1796875,20.953125,51.29150390625,14.111328125,13.96875,31.2109375,20.953125,51.291015625,20.953125s37.103515625-6.984375,51.072265625-20.953125c14.11328125-14.11181640625,21.171875-31.21142578125,21.171875-51.29150390625,0-19.93359375-7.05859375-36.9580078125-21.171875-51.0732421875-14.115234375-14.11181640625-31.138671875-21.17138671875-51.072265625-21.17138671875-20.080078125,0-37.1796875,7.0595703125-51.291015625,21.17138671875Z" style="fill: #14a0db;"/>
    <path d="M1349.406132484280533,169.865923906021635c7.126953125,0,13.314453125,2.54736328125,18.552734375,7.63916015625,5.23828125,5.23828125,7.857421875,11.49609375,7.857421875,18.7705078125v63.07763671875h32.73828125c7.126953125,0,13.314453125,2.619140625,18.552734375,7.857421875s7.857421875,11.49609375,7.857421875,18.7705078125v.4365234375c0,7.4208984375-2.619140625,13.607421875-7.857421875,18.55224609375-5.23828125,5.23828125-11.42578125,7.857421875-18.552734375,7.857421875h-32.73828125v129.42919921875c0,4.22216796875,1.451171875,7.78564453125,4.365234375,10.69482421875,2.908203125,2.91259765625,6.546875,4.365234375,10.912109375,4.365234375h17.4609375c7.126953125,0,13.314453125,2.619140625,18.552734375,7.857421875s7.857421875,11.49609375,7.857421875,18.7705078125v.4365234375c0,7.4208984375-2.619140625,13.607421875-7.857421875,18.55224609375-5.23828125,5.23828125-11.42578125,7.857421875-18.552734375,7.857421875h-17.4609375c-18.91796875,0-35.140625-6.69140625-48.671875-20.080078125-13.388671875-13.5322265625-20.080078125-29.68359375-20.080078125-48.4541015625V196.275591874771635c0-7.2744140625,2.619140625-13.5322265625,7.857421875-18.7705078125,5.23828125-5.091796875,11.419921875-7.63916015625,18.552734375-7.63916015625h.654296875Z" style="fill: #14a0db;"/>
    <path d="M1483.644413734280533,169.865923906021635c7.12890625,0,13.314453125,2.54736328125,18.552734375,7.63916015625,5.23828125,5.23828125,7.857421875,11.49609375,7.857421875,18.7705078125v75.955078125c11.4921875-8.583984375,28.8828125-12.87744140625,52.1640625-12.87744140625,28.955078125,0,53.763671875,10.33349609375,74.427734375,30.9931640625,20.66015625,20.6630859375,30.9921875,45.544921875,30.9921875,74.6455078125v119.38916015625c0,7.4208984375-2.619140625,13.607421875-7.857421875,18.55224609375-4.947265625,5.23828125-11.130859375,7.857421875-18.55078125,7.857421875h-.4375c-7.27734375,0-13.53125-2.619140625-18.76953125-7.857421875-5.23828125-4.94482421875-7.857421875-11.13134765625-7.857421875-18.55224609375v-119.38916015625c0-14.4052734375-5.021484375-26.69970703125-15.060546875-36.88623046875-10.1875-10.18310546875-22.48046875-15.2783203125-36.88671875-15.2783203125-14.55078125,0-26.919921875,5.09521484375-37.103515625,15.2783203125-10.041015625,10.1865234375-15.060546875,22.48095703125-15.060546875,36.88623046875v119.38916015625c0,7.4208984375-2.619140625,13.607421875-7.857421875,18.55224609375-5.23828125,5.23828125-11.423828125,7.857421875-18.552734375,7.857421875h-.654296875c-7.130859375,0-13.314453125-2.619140625-18.552734375-7.857421875-5.23828125-4.94482421875-7.857421875-11.13134765625-7.857421875-18.55224609375V196.275591874771635c0-7.2744140625,2.619140625-13.5322265625,7.857421875-18.7705078125,5.23828125-5.091796875,11.421875-7.63916015625,18.552734375-7.63916015625h.654296875Z" style="fill: #14a0db;"/>
    <path d="M1935.673710609280533,332.689166093521635c1.74609375,3.638671875,2.619140625,7.34912109375,2.619140625,11.13134765625,0,3.0556640625-.583984375,6.111328125-1.74609375,9.1669921875-2.4765625,6.84130859375-7.130859375,11.7861328125-13.96875,14.841796875-20.373046875,9.1669921875-47.14453125,21.24658203125-80.3203125,36.2314453125-41.1796875,18.62744140625-65.3359375,29.61181640625-72.462890625,32.95751953125,11.056640625,13.96875,28.298828125,20.953125,51.728515625,20.953125,15.568359375,0,29.68359375-4.58349609375,42.341796875-13.75048828125,12.3671875-9.0205078125,21.025390625-20.65966796875,25.97265625-34.921875,4.21875-11.92919921875,12.66015625-17.8974609375,25.318359375-17.8974609375,9.021484375,0,16.224609375,3.78564453125,21.609375,11.349609375,3.345703125,4.65869140625,5.01953125,9.53173828125,5.01953125,14.62353515625,0,3.0556640625-.583984375,6.1865234375-1.74609375,9.38525390625-8.587890625,24.8818359375-23.646484375,44.9619140625-45.1796875,60.240234375-21.826171875,15.86181640625-46.271484375,23.79052734375-73.3359375,23.79052734375-34.6328125,0-64.244140625-12.29443359375-88.833984375-36.88623046875-24.591796875-24.58837890625-36.884765625-54.20068359375-36.884765625-88.83251953125,0-34.62841796875,12.29296875-64.24072265625,36.884765625-88.83251953125,24.58984375-24.58837890625,54.201171875-36.88623046875,88.833984375-36.88623046875,25.025390625,0,47.87109375,6.84130859375,68.533203125,20.5166015625,20.517578125,13.38916015625,35.720703125,30.9931640625,45.6171875,52.8193359375Zm-114.150390625-19.42529296875c-20.080078125,0-37.1796875,7.0595703125-51.29296875,21.17138671875-13.96875,14.115234375-20.953125,31.21142578125-20.953125,51.29150390625v1.52783203125l122.009765625-54.78369140625c-10.76953125-12.80224609375-27.357421875-19.20703125-49.763671875-19.20703125Z" style="fill: #14a0db;"/>
    <path d="M2080.826054359280533,259.353228593521635c7.275390625,0,13.533203125,2.619140625,18.771484375,7.857421875,5.091796875,5.23828125,7.638671875,11.49609375,7.638671875,18.7705078125v.4365234375c0,7.27783203125-2.546875,13.46044921875-7.638671875,18.55224609375-5.23828125,5.23828125-11.49609375,7.857421875-18.771484375,7.857421875h-12.439453125c-11.93359375,0-22.044921875,4.14697265625-30.33984375,12.44091796875-8.150390625,8.2939453125-12.296875,18.4091796875-12.439453125,30.33837890625v128.7744140625c0,7.4208984375-2.619140625,13.607421875-7.857421875,18.55224609375-5.23828125,5.23828125-11.42578125,7.857421875-18.552734375,7.857421875h-.654296875c-7.1328125,0-13.314453125-2.619140625-18.552734375-7.857421875-5.23828125-4.94482421875-7.857421875-11.13134765625-7.857421875-18.55224609375v-128.7744140625c.2890625-26.6279296875,9.673828125-49.3271484375,28.15625-68.09765625,18.76953125-18.7705078125,41.46875-28.15576171875,68.09765625-28.15576171875h12.439453125Z" style="fill: #14a0db;"/>
    <path d="M2158.099491859280533,169.865923906021635c7.12890625,0,13.314453125,2.54736328125,18.552734375,7.63916015625,5.23828125,5.23828125,7.857421875,11.49609375,7.857421875,18.7705078125V484.381060624771635c0,7.4208984375-2.619140625,13.607421875-7.857421875,18.55224609375-5.23828125,5.23828125-11.423828125,7.857421875-18.552734375,7.857421875h-.654296875c-7.130859375,0-13.314453125-2.619140625-18.552734375-7.857421875-5.23828125-4.94482421875-7.857421875-11.13134765625-7.857421875-18.55224609375V196.275591874771635c0-7.2744140625,2.619140625-13.5322265625,7.857421875-18.7705078125,5.23828125-5.091796875,11.421875-7.63916015625,18.552734375-7.63916015625h.654296875Z" style="fill: #14a0db;"/>
    <path d="M2281.427616859280533,400.568560624771635c0,14.4052734375,5.01953125,26.703125,15.05859375,36.88623046875,10.18359375,10.1865234375,22.552734375,15.2783203125,37.10546875,15.2783203125,14.2578125,0,26.48046875-5.091796875,36.66796875-15.2783203125,10.18359375-10.18310546875,15.27734375-22.48095703125,15.27734375-36.88623046875v-114.58740234375c0-7.2744140625,2.619140625-13.5322265625,7.857421875-18.7705078125s11.494140625-7.857421875,18.771484375-7.857421875h.435546875c7.421875,0,13.603515625,2.619140625,18.552734375,7.857421875,5.23828125,5.23828125,7.857421875,11.49609375,7.857421875,18.7705078125v208.87646484375c0,28.81005859375-10.841796875,53.69287109375-32.521484375,74.64599609375-21.099609375,20.6591796875-45.3984375,30.9921875-72.8984375,30.9921875-21.826171875,0-41.6875-5.384765625-59.5859375-16.150390625-17.4609375-10.4765625-30.703125-24.5205078125-39.72265625-42.125-2.041015625-3.9287109375-3.056640625-7.857421875-3.056640625-11.7861328125,0-3.3486328125,.7265625-6.6943359375,2.18359375-10.0400390625,2.908203125-7.5673828125,8-12.583984375,15.27734375-15.060546875l.873046875-.435546875c3.19921875-1.0166015625,6.330078125-1.5283203125,9.384765625-1.5283203125,3.19921875,0,6.330078125,.5830078125,9.38671875,1.74609375,5.962890625,2.4755859375,10.4765625,6.619140625,13.53125,12.4404296875,4.654296875,8.73046875,11.638671875,15.787109375,20.953125,21.171875,9.45703125,5.5283203125,19.71484375,8.2939453125,30.775390625,8.2939453125,13.822265625,0,25.8984375-5.0947265625,36.23046875-15.2783203125,10.4765625-10.4765625,15.71484375-22.7705078125,15.71484375-36.88623046875v-1.74609375c-11.49609375,8.58740234375-28.810546875,12.87744140625-51.9453125,12.87744140625-29.103515625,0-53.986328125-10.330078125-74.646484375-30.9931640625-20.662109375-20.5166015625-30.9921875-45.3232421875-30.9921875-74.42724609375v-114.58740234375c0-7.2744140625,2.619140625-13.5322265625,7.857421875-18.7705078125s11.419921875-7.857421875,18.552734375-7.857421875h.654296875c7.126953125,0,13.314453125,2.619140625,18.552734375,7.857421875s7.857421875,11.49609375,7.857421875,18.7705078125v114.58740234375Z" style="fill: #14a0db;"/>
  </g>
</svg>